PathFileType	4	(X/Y/Z)	C:/Users/beibeiliu/ov580/test_trc/capture2\sequence.22_training_dense_left.trc
DataRate	CameraRate	NumFrames	NumMarkers	Units	OrigDataRate	OrigDataStartFrame	OrigNumFrames
120	120	14	19	mm	120	48	380
Frame#	Time	ThumbCMC			ThumbMCP			ThumbIP			ThumbTip			IndexMCP			IndexPIP			IndexTip			MiddleMCP			MiddlePIP			MiddleTip			RingMCP			RingPIP			RingTip			PinkyMCP			PinkyPIP			PinkyTip			BackHand1			BackHand2			BackHand3	
		X0	Y0	Z0	X1	Y1	Z1	X2	Y2	Z2	X3	Y3	Z3	X4	Y4	Z4	X5	Y5	Z5	X6	Y6	Z6	X7	Y7	Z7	X8	Y8	Z8	X9	Y9	Z9	X10	Y10	Z10	X11	Y11	Z11	X12	Y12	Z12	X13	Y13	Z13	X14	Y14	Z14	X15	Y15	Z15	X16	Y16	Z16	X17	Y17	Z17	X18	Y18	Z18	
47	0.391667	-122.488	97.2339	30.0598	-108.878	104.137	6.03738	-99.4503	122.803	-15.6821	-97.3209	130.933	-35.1189	-128.825	125.34	-36.8569	-106.537	112.337	-47.1869	-102.063	88.2245	-21.1133	-138.812	105.701	-43.2419	-112.772	83.7282	-43.8537	-118.68	78.2664	-7.35345	-143.134	85.7439	-50.252	-119.412	72.1499	-42.0721	-125.408	64.8233	-7.60774	-170.758	79.845	-47.8974	-163.582	80.4817	-71.4871	-154.494	84.6227	-95.7604	-177.689	81.987	1.02109	-178.224	73.2191	26.6538	-160.198	101.473	25.9497	
48	0.4	-119.411	91.2762	34.602	-103.154	99.2224	10.0759	-91.2779	118.231	-10.5673	-92.6953	126.741	-32.7206	-122.276	127.102	-30.5855	-101.558	108.76	-44.8514	-100.071	84.1518	-21.0974	-134.119	107.563	-40.3417	-107.756	86.4055	-39.9654	-115.79	78.6512	-4.61249	-141.68	93.2511	-43.3219	-119.755	68.9044	-39.8684	-125.302	69.745	-4.97908	-170.011	87.2586	-49.5183	-161.039	90.9454	-71.2121	-155.286	93.8694	-91.1287	-177.091	87.6972	3.24437	-176.825	75.5557	26.3942	-157.861	99.4772	28.6501	
49	0.408333	-112.381	90.123	34.2599	-98.7407	94.4864	12.4973	-87.1434	110.559	-7.41336	-82.6039	123.212	-28.4565	-113.196	124.741	-29.0784	-94.0075	104.145	-40.3518	-95.4589	80.9977	-19.2327	-126.323	109.37	-38.4091	-107.595	83.5452	-40.3823	-118.101	71.7112	-4.66192	-138.274	94.1896	-44.2497	-117.57	70.3549	-37.7766	-125.858	63.6235	-5.98485	-165.508	93.3281	-39.747	-157.623	97.3874	-64.1177	-154.025	100.505	-91.7864	-172.452	95.5701	4.43212	-171.885	78.6615	30.7138	-150.088	101.78	31.0273	
50	0.416667	-110.135	80.1327	38.5351	-92.6478	88.7107	13.8448	-81.3132	101.747	-5.11748	-72.4086	115.054	-24.1223	-105.681	121.557	-20.7801	-91.6308	98.5931	-40.9449	-92.1405	74.902	-20.0926	-121.051	107.162	-35.1886	-104.911	79.4311	-39.6473	-114.587	66.3312	-7.66485	-134.596	96.3109	-40.2234	-118.327	66.393	-37.6885	-126.144	63.1191	-3.84083	-161.117	97.3809	-42.8297	-156.8	98.593	-63.3494	-148.626	105.235	-85.0291	-167.444	96.6524	8.68153	-172.703	81.2512	31.3762	-145.008	101.049	33.2645	
51	0.425	-107.058	73.3209	39.0426	-86.5306	78.8002	16.1948	-77.0446	92.4258	-4.51854	-67.8084	107.529	-25.9319	-99.7919	116.579	-21.9499	-86.2981	94.566	-38.8414	-93.9762	68.4772	-17.2746	-115.37	104.676	-32.816	-100.226	78.556	-40.0286	-114.945	63.2891	-3.43493	-128	95.0547	-38.2154	-114.718	66.1134	-36.535	-125.623	58.1581	-6.90556	-159.8	97.2308	-39.6445	-149.166	100.832	-63.6267	-139.943	104.841	-83.9673	-160.599	98.4013	9.60266	-170.362	80.0313	32.4292	-137.659	100.047	35.866	
52	0.433333	-108.462	70.2792	36.438	-89.1087	71.1975	16.4553	-70.5483	89.0293	-6.47137	-65.519	98.4698	-25.6647	-97.6263	111.13	-21.4285	-85.3871	89.187	-39.8165	-94.9796	64.3787	-17.5098	-111.297	99.0938	-36.5475	-99.0642	72.2431	-40.0134	-108.851	59.7391	-4.89302	-130.226	90.6058	-38.6471	-114.965	62.5189	-37.3553	-125.242	55.5252	-5.12132	-155.299	96.5578	-39.8921	-145.336	99.0179	-63.2633	-139.775	103.912	-88.3804	-156.035	97.1006	9.09522	-169.638	79.6778	35.5324	-133.038	97.7372	34.93	
53	0.441667	-105.01	63.1509	38.5373	-84.5531	68.5256	13.4272	-68.1012	80.0156	-6.56697	-64.4614	88.8571	-25.371	-93.2324	105.791	-20.5581	-82.0003	81.851	-39.0232	-91.0484	59.0593	-19.3189	-104.828	95.2776	-34.0344	-99.1136	64.0171	-38.4174	-111.292	54.8281	-5.43906	-121.999	87.9025	-37.6397	-116.235	58.7082	-38.7605	-121.151	50.6647	-7.40869	-150.108	96.3922	-37.302	-141.494	97.6135	-60.5025	-136.982	101.925	-83.6422	-157.656	95.137	12.5322	-164.733	80.2548	35.4593	-128.362	94.4688	35.6682	
54	0.45	-102.745	62.1499	35.5997	-86.0108	61.0992	14.2478	-68.1322	72.3378	-6.53105	-63.2891	81.1177	-26.1266	-90.4915	100.231	-21.964	-81.3159	73.0102	-39.1455	-92.6225	53.9511	-18.2738	-108.667	91.1717	-35.1388	-99.5587	59.4069	-37.6277	-110.371	50.9649	-4.19889	-125.912	83.4756	-38.8246	-118.468	51.6392	-37.7503	-122.365	47.8333	-6.91022	-148.485	94.0254	-40.1106	-141.7	94.2371	-60.8509	-134.25	96.6425	-84.0042	-154.223	94.2708	11.0376	-164.428	75.836	34.9572	-126.672	88.4688	35.5487	
55	0.458333	-104.861	56.9345	35.1548	-83.5483	57.4434	12.107	-71.1853	66.5423	-7.84844	-58.4021	75.8786	-27.9575	-91.1229	95.8679	-21.3034	-82.6478	70.3401	-39.2897	-94.6444	50.2425	-16.3771	-105.547	87.3961	-33.9515	-98.0833	55.0585	-38.567	-112.18	45.3859	-8.0098	-123.089	82.199	-36.4462	-117.048	47.1019	-36.6049	-122.844	43.775	-6.41862	-149.854	91.0457	-39.057	-141.371	91.3434	-57.9796	-136.236	93.1991	-87.6516	-149.807	90.3113	12.3761	-159.106	76.3574	35.63	-127.822	85.8853	38.2278	
56	0.466667	-102.338	54.6978	35.3292	-82.5849	52.5912	13.2323	-66.9391	61.5088	-7.30463	-58.5084	68.7319	-26.1907	-86.9047	91.0069	-22.6258	-80.0306	65.8061	-38.3444	-92.141	45.8543	-16.5473	-104.426	82.8312	-35.5282	-101.669	50.3672	-38.0195	-114.517	43.9582	-4.47535	-123.625	78.3291	-36.2633	-118.271	44.4679	-36.1011	-122.109	42.6979	-3.67203	-148.086	87.7962	-34.3532	-141.819	88.7648	-56.3611	-137.44	91.517	-84.9178	-151.185	91.0072	8.68102	-162.549	74.4664	37.8184	-123.314	83.1795	35.0694	
57	0.475	-105.246	48.9223	37.7725	-86.5247	47.6965	14.8521	-71.7427	57.6887	-9.14397	-62.9802	64.6795	-27.4167	-85.1009	85.262	-24.1014	-83.1493	60.7828	-38.6879	-94.6767	43.4554	-13.5973	-105.484	79.462	-35.5054	-101.824	49.7153	-40.7621	-113.881	41.4038	-3.06724	-120.59	72.6552	-39.1543	-115.892	42.4591	-36.7731	-122.423	37.8753	-6.64328	-148.619	85.4173	-36.1218	-143.294	86.095	-61.1904	-139.141	89.9694	-83.4093	-150.686	85.4943	10.7351	-156.989	73.4428	38.4585	-125.355	80.3516	37.1093	
58	0.483333	-101.546	44.7854	40.0725	-86.1729	43.5569	14.5742	-70.204	50.6598	-4.74019	-61.1667	60.4408	-27.6365	-86.1996	82.4364	-21.2703	-81.9064	57.9437	-38.8223	-96.7112	39.4594	-11.0755	-106.318	76.1305	-32.7328	-102.138	42.2805	-36.0055	-112.389	37.081	-1.61282	-122.933	71.0553	-36.878	-118.12	38.435	-35.739	-122.89	34.0666	-5.926	-148.548	82.358	-36.6403	-141.097	82.3412	-57.742	-135.753	84.7026	-84.7578	-145.018	84.4192	11.1876	-158.993	69.2996	38.4611	-124.833	78.2724	36.0771	
59	0.491667	-100.951	40.2943	40.8575	-85.1829	39.051	14.648	-69.8312	46.3194	-5.56962	-63.1429	55.7972	-28.7678	-81.704	76.4799	-24.0664	-77.9691	49.228	-35.8421	-94.9412	34.994	-15.0462	-104.609	70.1394	-35.4506	-100.005	40.196	-38.0984	-114.516	33.2474	-3.97346	-121.022	64.6844	-38.7917	-115.744	34.4347	-33.4262	-124.961	32.5298	-0.337014	-147.569	77.1233	-34.6286	-140.317	77.3327	-62.5193	-134.572	77.7432	-82.2808	-150.438	79.6205	13.0779	-159.537	68.0648	37.9511	-120.409	74.688	37.938	
60	0.5	-100.161	38.2112	41.2058	-85.0989	36.0573	15.7079	-66.739	43.9636	-8.58626	-62.4205	51.5945	-27.762	-85.0037	73.3676	-20.8235	-80.6197	47.4692	-39.1746	-97.3404	30.2543	-11.4012	-100.38	66.3053	-33.4318	-100.667	36.2	-38.2142	-109.604	29.2863	0.376595	-120.901	61.0384	-38.4963	-118.695	29.3859	-34.5967	-122.432	28.0193	-3.07283	-144.565	73.8586	-35.7069	-141.385	72.6461	-60.1439	-136.671	75.3612	-83.6334	-144.52	78.2988	10.0524	-156.454	64.1535	39.6682	-124.157	70.6294	34.6691	
